<svg width="124" height="90" viewBox="0 0 124 90" fill="none" xmlns="http://www.w3.org/2000/svg">
<rect width="123.609" height="89.6168" fill="url(#paint0_linear_900_1787)"/>
<path d="M91.0002 72C94.6002 72 96.0302 67.824 97.4132 63.786C98.7232 59.958 100.08 56 103 56C103.682 56.0402 104.337 56.2825 104.88 56.696C105.424 57.1095 105.832 57.6756 106.053 58.322L107.95 57.684C107.899 57.534 106.679 54 103 54C98.6502 54 96.9882 58.855 95.5202 63.138C94.3112 66.667 93.1702 70 91.0002 70C90.3184 69.9599 89.664 69.7178 89.1202 69.3044C88.5765 68.8911 88.1682 68.3252 87.9472 67.679L86.0512 68.316C86.1012 68.466 87.3212 72 91.0002 72Z" fill="white"/>
<path d="M110 76V65H108V63H110V50H112V76C112 76.5304 111.789 77.0391 111.414 77.4142C111.039 77.7893 110.53 78 110 78H84V76H110Z" fill="white"/>
<path d="M106 63H104V65H106V63ZM102 63H100V65H102V63ZM94 63H92V65H94V63ZM90 63H88V65H90V63ZM86 63H84V65H86V63Z" fill="white"/>
<defs>
<linearGradient id="paint0_linear_900_1787" x1="123.609" y1="89.6168" x2="-2.94728" y2="-19.0948" gradientUnits="userSpaceOnUse">
<stop stop-color="#B396F0"/>
<stop offset="0.570545" stop-color="#B396F0" stop-opacity="0"/>
</linearGradient>
</defs>
</svg>
