<svg width="938" height="479" viewBox="0 0 938 479" fill="none" xmlns="http://www.w3.org/2000/svg">
<path d="M346.127 385.798L193.528 474.062C140.412 504.785 162.208 586 223.569 586H936.5C969.637 586 996.5 559.137 996.5 526V174.853C996.5 121.399 931.871 94.6286 894.074 132.426L667.861 358.639C647.247 379.253 612 364.653 612 335.5C612 306.347 576.753 291.747 556.138 312.362L437.77 430.73C419.773 448.727 389 435.981 389 410.528C389 388.526 365.173 374.782 346.127 385.798Z" fill="#005AE0"/>
<path d="M346.127 355.798L193.528 444.062C140.412 474.785 162.208 556 223.569 556H936.5C969.637 556 996.5 529.137 996.5 496V144.853C996.5 91.3985 931.871 64.6286 894.074 102.426L667.861 328.639C647.247 349.253 612 334.653 612 305.5C612 276.347 576.753 261.747 556.138 282.362L437.77 400.73C419.773 418.727 389 405.981 389 380.528C389 358.526 365.173 344.782 346.127 355.798Z" fill="#005AE0" fill-opacity="0.5"/>
</svg>
