<svg width="731" height="430" viewBox="0 0 731 430" fill="none" xmlns="http://www.w3.org/2000/svg">
<path d="M253.779 282.866L141.894 347.581C102.95 370.107 118.931 429.654 163.92 429.654H686.639C710.935 429.654 730.631 409.958 730.631 385.662V128.202C730.631 89.0093 683.246 69.3815 655.533 97.0949L489.674 262.953C474.56 278.067 448.717 267.363 448.717 245.988C448.717 224.613 422.874 213.909 407.759 229.023L320.972 315.81C307.776 329.006 285.214 319.66 285.214 300.999C285.214 284.866 267.744 274.789 253.779 282.866Z" fill="#005AE0"/>
<path d="M253.779 260.87L141.894 325.585C102.95 348.111 118.931 407.658 163.92 407.658H686.639C710.935 407.658 730.631 387.962 730.631 363.666V106.206C730.631 67.0132 683.246 47.3854 655.533 75.0988L489.674 240.957C474.56 256.071 448.717 245.367 448.717 223.992C448.717 202.617 422.874 191.912 407.759 207.027L320.972 293.814C307.776 307.01 285.214 297.664 285.214 279.002C285.214 262.87 267.744 252.793 253.779 260.87Z" fill="#005AE0" fill-opacity="0.5"/>
</svg>
