<svg width="124" height="90" viewBox="0 0 124 90" fill="none" xmlns="http://www.w3.org/2000/svg">
<rect width="123.609" height="89.6168" fill="url(#paint0_linear_900_1795)"/>
<path fill-rule="evenodd" clip-rule="evenodd" d="M83.9586 56.6271C84.1459 56.4397 84.4 56.3342 84.665 56.334C84.93 56.3337 85.1843 56.4387 85.3719 56.6258L90.5973 61.8284C91.2826 62.5098 91.7266 62.9484 92.0959 63.2311C92.4426 63.4938 92.6053 63.5244 92.7119 63.5244C92.8199 63.5244 92.9826 63.4951 93.3293 63.2311C93.6999 62.9511 94.1426 62.5111 94.8293 61.8298L95.1946 61.4658C95.8213 60.8444 96.3586 60.3084 96.8479 59.9378C97.3733 59.5391 97.9546 59.2378 98.6733 59.2378C99.3906 59.2378 99.9733 59.5391 100.499 59.9364C100.988 60.3084 101.527 60.8431 102.152 61.4658L110.333 69.5964V64.6058C110.333 64.3406 110.439 64.0862 110.626 63.8987C110.814 63.7111 111.068 63.6058 111.333 63.6058C111.598 63.6058 111.853 63.7111 112.04 63.8987C112.228 64.0862 112.333 64.3406 112.333 64.6058V72.0004C112.333 72.2657 112.228 72.52 112.04 72.7075C111.853 72.8951 111.598 73.0004 111.333 73.0004H103.891C103.625 73.0004 103.371 72.8951 103.183 72.7075C102.996 72.52 102.891 72.2657 102.891 72.0004C102.891 71.7352 102.996 71.4809 103.183 71.2933C103.371 71.1058 103.625 71.0004 103.891 71.0004H108.909L100.789 62.9298C100.104 62.2498 99.6599 61.8098 99.2893 61.5298C98.9426 61.2671 98.7813 61.2378 98.6733 61.2378C98.5666 61.2378 98.4039 61.2671 98.0573 61.5311C97.6879 61.8111 97.2439 62.2498 96.5586 62.9311L96.1933 63.2938C95.5666 63.9164 95.0279 64.4538 94.5386 64.8244C94.0133 65.2231 93.4306 65.5244 92.7119 65.5244C91.9933 65.5244 91.4106 65.2218 90.8853 64.8231C90.3959 64.4511 89.8586 63.9138 89.2319 63.2911C89.2164 63.276 89.2009 63.2609 89.1853 63.2458L83.9613 58.0404C83.7736 57.8533 83.668 57.5993 83.6675 57.3343C83.667 57.0693 83.7717 56.815 83.9586 56.6271Z" fill="white"/>
<defs>
<linearGradient id="paint0_linear_900_1795" x1="123.609" y1="89.6168" x2="-2.94728" y2="-19.0948" gradientUnits="userSpaceOnUse">
<stop stop-color="#96F0E5"/>
<stop offset="0.570545" stop-color="#96F0E5" stop-opacity="0"/>
</linearGradient>
</defs>
</svg>
