<svg width="124" height="90" viewBox="0 0 124 90" fill="none" xmlns="http://www.w3.org/2000/svg">
<rect width="123.609" height="89.6168" fill="url(#paint0_linear_900_1792)"/>
<path fill-rule="evenodd" clip-rule="evenodd" d="M83.9586 71.3729C84.1459 71.5603 84.4 71.6658 84.665 71.666C84.93 71.6663 85.1843 71.5613 85.3719 71.3742L90.5973 66.1716C91.2826 65.4902 91.7266 65.0516 92.0959 64.7689C92.4426 64.5062 92.6053 64.4756 92.7119 64.4756C92.8199 64.4756 92.9826 64.5049 93.3293 64.7689C93.6999 65.0489 94.1426 65.4889 94.8293 66.1702L95.1946 66.5342C95.8213 67.1556 96.3586 67.6916 96.8479 68.0622C97.3733 68.4609 97.9546 68.7622 98.6733 68.7622C99.3906 68.7622 99.9733 68.4609 100.499 68.0636C100.988 67.6916 101.527 67.1569 102.152 66.5342L110.333 58.4036V63.3942C110.333 63.6594 110.439 63.9138 110.626 64.1013C110.814 64.2889 111.068 64.3942 111.333 64.3942C111.598 64.3942 111.853 64.2889 112.04 64.1013C112.228 63.9138 112.333 63.6594 112.333 63.3942V55.9996C112.333 55.7343 112.228 55.48 112.04 55.2925C111.853 55.1049 111.598 54.9996 111.333 54.9996H103.891C103.625 54.9996 103.371 55.1049 103.183 55.2925C102.996 55.48 102.891 55.7343 102.891 55.9996C102.891 56.2648 102.996 56.5191 103.183 56.7067C103.371 56.8942 103.625 56.9996 103.891 56.9996H108.909L100.789 65.0702C100.104 65.7502 99.6599 66.1902 99.2893 66.4702C98.9426 66.7329 98.7813 66.7622 98.6733 66.7622C98.5666 66.7622 98.4039 66.7329 98.0573 66.4689C97.6879 66.1889 97.2439 65.7502 96.5586 65.0689L96.1933 64.7062C95.5666 64.0836 95.0279 63.5462 94.5386 63.1756C94.0133 62.7769 93.4306 62.4756 92.7119 62.4756C91.9933 62.4756 91.4106 62.7782 90.8853 63.1769C90.3959 63.5489 89.8586 64.0862 89.2319 64.7089C89.2164 64.724 89.2009 64.7391 89.1853 64.7542L83.9613 69.9596C83.7736 70.1467 83.668 70.4007 83.6675 70.6657C83.667 70.9307 83.7717 71.185 83.9586 71.3729Z" fill="white"/>
<defs>
<linearGradient id="paint0_linear_900_1792" x1="123.609" y1="89.6168" x2="-2.94728" y2="-19.0948" gradientUnits="userSpaceOnUse">
<stop stop-color="#7BD7FF"/>
<stop offset="0.570545" stop-color="#7BD7FF" stop-opacity="0"/>
</linearGradient>
</defs>
</svg>
