<svg width="1280" height="832" viewBox="0 0 1280 832" fill="none" xmlns="http://www.w3.org/2000/svg">
<g clip-path="url(#clip0_1047_3186)">
<rect width="1280" height="831.323" fill="white"/>
<path d="M778.943 752.422L649.759 827.143C604.793 853.151 623.245 921.905 675.191 921.905H1278.73C1306.78 921.905 1329.52 899.164 1329.52 871.111V573.844C1329.52 528.591 1274.81 505.929 1242.81 537.927L1051.31 729.429C1033.86 746.881 1004.02 734.521 1004.02 709.841C1004.02 685.161 974.182 672.802 956.731 690.253L856.525 790.459C841.289 805.695 815.238 794.904 815.238 773.357C815.238 754.731 795.067 743.096 778.943 752.422Z" fill="#005AE0"/>
<path d="M778.943 727.025L649.759 801.746C604.793 827.755 623.245 896.508 675.191 896.508H1278.73C1306.78 896.508 1329.52 873.767 1329.52 845.714V548.447C1329.52 503.195 1274.81 480.532 1242.81 512.531L1051.31 704.033C1033.86 721.484 1004.02 709.124 1004.02 684.445C1004.02 659.765 974.182 647.405 956.731 664.856L856.525 765.062C841.289 780.298 815.238 769.508 815.238 747.961C815.238 729.334 795.067 717.699 778.943 727.025Z" fill="#005AE0" fill-opacity="0.5"/>
</g>
<defs>
<clipPath id="clip0_1047_3186">
<rect width="1280" height="831.323" fill="white"/>
</clipPath>
</defs>
</svg>
