<svg width="80" height="61" viewBox="0 0 80 61" fill="none" xmlns="http://www.w3.org/2000/svg">
<path d="M65 10H15C12.2386 10 10 12.2386 10 15V65C10 67.7614 12.2386 70 15 70H65C67.7614 70 70 67.7614 70 65V15C70 12.2386 67.7614 10 65 10Z" stroke="#D4D4D4" stroke-width="5" stroke-linejoin="round"/>
<path fill-rule="evenodd" clip-rule="evenodd" d="M40 37.5001C41.1051 37.5001 42.1649 37.0611 42.9463 36.2797C43.7277 35.4983 44.1667 34.4385 44.1667 33.3334C44.1667 32.2283 43.7277 31.1685 42.9463 30.3871C42.1649 29.6057 41.1051 29.1667 40 29.1667C38.895 29.1667 37.8352 29.6057 37.0538 30.3871C36.2724 31.1685 35.8334 32.2283 35.8334 33.3334C35.8334 34.4385 36.2724 35.4983 37.0538 36.2797C37.8352 37.0611 38.895 37.5001 40 37.5001ZM40 50.8334C41.1051 50.8334 42.1649 50.3944 42.9463 49.613C43.7277 48.8316 44.1667 47.7718 44.1667 46.6667C44.1667 45.5617 43.7277 44.5019 42.9463 43.7205C42.1649 42.9391 41.1051 42.5001 40 42.5001C38.895 42.5001 37.8352 42.9391 37.0538 43.7205C36.2724 44.5019 35.8334 45.5617 35.8334 46.6667C35.8334 47.7718 36.2724 48.8316 37.0538 49.613C37.8352 50.3944 38.895 50.8334 40 50.8334Z" fill="#D4D4D4"/>
<path d="M25.8334 28.3333V51.6666M54.1667 28.3333V51.6666" stroke="#D4D4D4" stroke-width="5" stroke-linecap="round" stroke-linejoin="round"/>
</svg>
