<svg width="16" height="16" viewBox="0 0 16 16" fill="none" xmlns="http://www.w3.org/2000/svg">
<path d="M14.3635 5.29295C14.1759 5.10548 13.9216 5.00017 13.6565 5.00017C13.3913 5.00017 13.137 5.10548 12.9495 5.29295L7.99946 10.243L3.04946 5.29295C2.86086 5.11079 2.60826 5.01 2.34606 5.01228C2.08387 5.01456 1.83305 5.11973 1.64764 5.30513C1.46224 5.49054 1.35707 5.74135 1.35479 6.00355C1.35251 6.26575 1.45331 6.51835 1.63546 6.70695L7.29246 12.364C7.47999 12.5514 7.7343 12.6567 7.99946 12.6567C8.26463 12.6567 8.51894 12.5514 8.70646 12.364L14.3635 6.70695C14.5509 6.51942 14.6562 6.26512 14.6562 5.99995C14.6562 5.73479 14.5509 5.48048 14.3635 5.29295Z" fill="#1E1E1E"/>
</svg>
