<svg width="200" height="145" viewBox="0 0 200 145" fill="none" xmlns="http://www.w3.org/2000/svg">
<rect width="200" height="145" transform="matrix(-1 0 0 1 200 0)" fill="url(#paint0_linear_499_5122)"/>
<path d="M58.5 107C53.1 107 50.9549 100.736 48.8804 94.679C46.9155 88.937 44.88 83 40.5 83C39.4771 83.0603 38.4953 83.4237 37.6797 84.044C36.8641 84.6643 36.2517 85.5134 35.9205 86.483L33.075 85.526C33.1515 85.301 34.9815 80 40.5 80C47.025 80 49.5179 87.2825 51.7199 93.707C53.5334 99.0005 55.245 104 58.5 104C59.5227 103.94 60.5043 103.577 61.3199 102.957C62.1354 102.337 62.748 101.488 63.0794 100.519L65.9234 101.474C65.8484 101.699 64.0184 107 58.5 107Z" fill="white"/>
<path d="M30 113V96.5H33V93.5H30V74H27V113C27 113.796 27.3161 114.559 27.8787 115.121C28.4413 115.684 29.2044 116 30 116H69V113H30Z" fill="white"/>
<path d="M36 93.5H39V96.5H36V93.5ZM42 93.5H45V96.5H42V93.5ZM54 93.5H57V96.5H54V93.5ZM60 93.5H63V96.5H60V93.5ZM66 93.5H69V96.5H66V93.5Z" fill="white"/>
<defs>
<linearGradient id="paint0_linear_499_5122" x1="200" y1="145" x2="-4.7687" y2="-30.8954" gradientUnits="userSpaceOnUse">
<stop stop-color="#B396F0"/>
<stop offset="0.570545" stop-color="#B396F0" stop-opacity="0"/>
</linearGradient>
</defs>
</svg>
