<svg width="32" height="32" viewBox="0 0 32 32" fill="none" xmlns="http://www.w3.org/2000/svg">
<rect width="32" height="32" rx="4" fill="#EEEEEE"/>
<g clip-path="url(#clip0_499_5060)">
<path d="M19 23C19.0001 23.5046 18.8096 23.9906 18.4665 24.3605C18.1234 24.7305 17.6531 24.9572 17.15 24.995L17 25H15C14.4954 25.0002 14.0094 24.8096 13.6394 24.4665C13.2694 24.1234 13.0428 23.6532 13.005 23.15L13 23H19ZM16 6C17.8149 5.99997 19.559 6.70489 20.8642 7.96607C22.1694 9.22726 22.9337 10.9461 22.996 12.76L23 13V16.764L24.822 20.408C24.9015 20.567 24.9413 20.7429 24.9379 20.9206C24.9346 21.0984 24.8882 21.2727 24.8028 21.4286C24.7174 21.5845 24.5955 21.7174 24.4475 21.8158C24.2994 21.9143 24.1298 21.9754 23.953 21.994L23.838 22H8.16197C7.98413 22.0001 7.80894 21.957 7.65139 21.8745C7.49385 21.792 7.35865 21.6725 7.25739 21.5264C7.15613 21.3802 7.09182 21.2116 7.06997 21.0351C7.04813 20.8586 7.0694 20.6795 7.13197 20.513L7.17797 20.408L8.99997 16.764V13C8.99997 11.1435 9.73747 9.36301 11.0502 8.05025C12.363 6.7375 14.1435 6 16 6Z" fill="#1E1E1E"/>
</g>
<defs>
<clipPath id="clip0_499_5060">
<rect width="24" height="24" fill="white" transform="translate(4 4)"/>
</clipPath>
</defs>
</svg>
