<svg width="23" height="24" viewBox="0 0 23 24" fill="none" xmlns="http://www.w3.org/2000/svg">
<g clip-path="url(#clip0_1019_11046)">
<path d="M12.7955 13.3106L14.1286 13.3105L14.1291 9.30974L10.1287 9.30974L10.1292 10.6433L11.8522 10.6438L8.29922 14.1968L9.24203 15.1396L12.795 11.5866L12.7955 13.3106Z" fill="#00E09D"/>
<path fill-rule="evenodd" clip-rule="evenodd" d="M18.7707 12.0008C18.7707 7.95047 15.4878 4.66761 11.4375 4.66761C7.38719 4.66761 4.10433 7.95047 4.10433 12.0008C4.10433 16.0511 7.38719 19.334 11.4375 19.334C15.4878 19.334 18.7707 16.0511 18.7707 12.0008ZM17.4375 12.0008C17.4375 10.4095 16.8054 8.88334 15.6802 7.75812C14.5549 6.63289 13.0288 6.00075 11.4375 6.00075C9.84619 6.00075 8.32006 6.63289 7.19483 7.75812C6.06961 8.88334 5.43746 10.4095 5.43746 12.0008C5.43746 13.5921 6.06961 15.1182 7.19483 16.2434C8.32006 17.3687 9.84619 18.0008 11.4375 18.0008C13.0288 18.0008 14.5549 17.3687 15.6802 16.2434C16.8054 15.1182 17.4375 13.5921 17.4375 12.0008Z" fill="#00E09D"/>
</g>
<defs>
<clipPath id="clip0_1019_11046">
<rect width="16" height="16" fill="white" transform="translate(11.4375 0.686523) rotate(45)"/>
</clipPath>
</defs>
</svg>
