<svg width="24" height="24" viewBox="0 0 24 24" fill="none" xmlns="http://www.w3.org/2000/svg">
<path d="M18.9984 8.5V6.50008L5 6.5V8.5" stroke="#1E1E1E" stroke-width="1.5" stroke-linejoin="round"/>
<path d="M16.5 4.5V2.50008L7.5 2.5V4.5" stroke="#1E1E1E" stroke-width="1.5" stroke-linejoin="round"/>
<path d="M6 21.5L5.27643 21.6973L5.42716 22.25H6V21.5ZM3 10.5V9.75C2.76625 9.75 2.54586 9.85899 2.40397 10.0448C2.26209 10.2305 2.21493 10.4718 2.27643 10.6973L3 10.5ZM18 21.5V22.25H18.5729L18.7236 21.6973L18 21.5ZM20.9986 10.5L21.7221 10.6973C21.7836 10.4717 21.7364 10.2305 21.5946 10.0447C21.4527 9.85897 21.2323 9.75 20.9986 9.75V10.5ZM6.72358 21.3027L3.72358 10.3027L2.27643 10.6973L5.27643 21.6973L6.72358 21.3027ZM18.7236 21.6973L21.7221 10.6973L20.275 10.3027L17.2764 21.3027L18.7236 21.6973ZM3 11.25H20.9986V9.75H3V11.25ZM6 22.25H18V20.75H6.00001L6 22.25Z" fill="#1E1E1E"/>
</svg>
