<svg width="32" height="32" viewBox="0 0 32 32" fill="none" xmlns="http://www.w3.org/2000/svg">
<rect width="32" height="32" rx="4" fill="#005AE0" fill-opacity="0.1"/>
<path d="M22.707 19.3219C22.2148 16.3603 20.6824 14.1549 19.3502 12.8596C18.9626 12.4826 18.7688 12.2942 18.3406 12.1197C17.9124 11.9453 17.5444 11.9453 16.8083 11.9453H15.1916C14.4556 11.9453 14.0876 11.9453 13.6594 12.1197C13.2313 12.2942 13.0374 12.4826 12.6498 12.8596C11.3176 14.1549 9.78521 16.3603 9.29295 19.3219C8.9267 21.5254 10.9595 23.1953 13.2312 23.1953H18.7688C21.0405 23.1953 23.0733 21.5254 22.707 19.3219Z" stroke="#094ECE" stroke-width="1.5" stroke-linecap="round"/>
<path d="M16.4973 14.9453C16.4973 14.6347 16.2455 14.3828 15.9348 14.3828C15.6241 14.3828 15.3723 14.6347 15.3723 14.9453H16.4973ZM15.3723 20.1953C15.3723 20.506 15.6241 20.7578 15.9348 20.7578C16.2455 20.7578 16.4973 20.506 16.4973 20.1953H15.3723ZM16.7393 16.4107C16.9272 16.658 17.2801 16.7061 17.5275 16.5181C17.7748 16.3301 17.8229 15.9772 17.6349 15.7299L16.7393 16.4107ZM15.0604 18.772C14.8289 18.5648 14.4733 18.5845 14.2661 18.816C14.0589 19.0475 14.0787 19.4031 14.3102 19.6103L15.0604 18.772ZM15.9348 16.9323C15.4493 16.9323 15.2282 16.8531 15.1403 16.7938C15.1 16.7667 15.0625 16.7359 15.0625 16.5874H13.9375C13.9375 17.0236 14.0956 17.4465 14.5119 17.7269C14.8804 17.9752 15.3768 18.0573 15.9348 18.0573V16.9323ZM15.0625 16.5874C15.0625 16.5158 15.1006 16.4048 15.2542 16.2915C15.4076 16.1782 15.6464 16.0912 15.9348 16.0912V14.9662C15.4308 14.9662 14.9522 15.1162 14.5862 15.3862C14.2206 15.656 13.9375 16.0744 13.9375 16.5874H15.0625ZM16.9375 18.5535C16.9375 18.7199 16.8783 18.8082 16.7519 18.8842C16.5914 18.9806 16.3159 19.0496 15.9348 19.0496V20.1746C16.4181 20.1746 16.9253 20.0924 17.3312 19.8485C17.7713 19.5842 18.0625 19.1431 18.0625 18.5535H16.9375ZM15.9348 18.0573C16.4248 18.0573 16.6803 18.1327 16.8014 18.2117C16.8719 18.2577 16.9375 18.325 16.9375 18.5535H18.0625C18.0625 18.0257 17.8672 17.5637 17.416 17.2694C17.0153 17.0081 16.4883 16.9323 15.9348 16.9323V18.0573ZM16.4973 15.5287V14.9453H15.3723V15.5287H16.4973ZM15.3723 19.6121V20.1953H16.4973V19.6121H15.3723ZM15.9348 16.0912C16.3359 16.0912 16.6215 16.2559 16.7393 16.4107L17.6349 15.7299C17.2613 15.2384 16.6095 14.9662 15.9348 14.9662V16.0912ZM15.9348 19.0496C15.5347 19.0496 15.2238 18.9182 15.0604 18.772L14.3102 19.6103C14.7182 19.9754 15.314 20.1746 15.9348 20.1746V19.0496Z" fill="#094ECE"/>
<path d="M12.4425 10.0275C12.2877 9.80225 12.0635 9.49656 12.5267 9.42685C13.0029 9.3552 13.4974 9.68117 13.9814 9.67447C14.4193 9.66841 14.6423 9.4742 14.8817 9.19692C15.1337 8.90494 15.5239 8.19531 16 8.19531C16.4761 8.19531 16.8663 8.90494 17.1183 9.19692C17.3577 9.4742 17.5807 9.66841 18.0185 9.67447C18.5026 9.68117 18.9971 9.3552 19.4733 9.42685C19.9365 9.49656 19.7123 9.80225 19.5576 10.0275L18.8579 11.0458C18.5586 11.4814 18.409 11.6992 18.0958 11.8223C17.7827 11.9453 17.378 11.9453 16.5686 11.9453H15.4314C14.622 11.9453 14.2173 11.9453 13.9042 11.8223C13.591 11.6992 13.4414 11.4814 13.1421 11.0458L12.4425 10.0275Z" stroke="#094ECE" stroke-width="1.5"/>
</svg>
