<svg width="80" height="61" viewBox="0 0 80 61" fill="none" xmlns="http://www.w3.org/2000/svg">
<path d="M28.75 15C26.4322 15.0092 24.2119 15.934 22.573 17.573C20.934 19.2119 20.0092 21.4322 20 23.75C20 28.555 23.945 32.5 28.75 32.5C33.555 32.5 37.5 28.555 37.5 23.75C37.5 18.945 33.555 15 28.75 15ZM51.25 15C48.9322 15.0092 46.7119 15.934 45.073 17.573C43.434 19.2119 42.5092 21.4322 42.5 23.75C42.5 28.555 46.445 32.5 51.25 32.5C56.055 32.5 60 28.555 60 23.75C60 18.945 56.055 15 51.25 15ZM28.75 20C30.85 20 32.5 21.65 32.5 23.75C32.5 25.85 30.85 27.5 28.75 27.5C26.65 27.5 25 25.85 25 23.75C25 21.65 26.65 20 28.75 20ZM51.25 20C53.35 20 55 21.65 55 23.75C55 25.85 53.35 27.5 51.25 27.5C49.15 27.5 47.5 25.85 47.5 23.75C47.5 21.65 49.15 20 51.25 20ZM17.5 30C12 30 7.5 34.5 7.5 40C7.5 42.7825 8.6925 45.2925 10.5475 47.11C8.84581 48.2583 7.45074 49.8053 6.48383 51.6163C5.51692 53.4272 5.00752 55.4471 5 57.5H10C10 53.33 13.33 50 17.5 50C21.67 50 25 53.33 25 57.5H30C29.9925 55.4471 29.4831 53.4272 28.5162 51.6163C27.5493 49.8053 26.1542 48.2583 24.4525 47.11C26.3075 45.2925 27.5 42.785 27.5 40C27.5 34.5 23 30 17.5 30ZM30 57.5C28.4375 59.59 27.5 62.2175 27.5 65H32.5C32.5 60.83 35.83 57.5 40 57.5C44.17 57.5 47.5 60.83 47.5 65H52.5C52.4957 62.2961 51.6189 59.6657 50 57.5C49.15 56.3675 48.125 55.4 46.9525 54.61C48.8075 52.7925 50 50.285 50 47.5C50 42 45.5 37.5 40 37.5C34.5 37.5 30 42 30 47.5C30 50.2825 31.1925 52.7925 33.0475 54.61C31.8772 55.3961 30.8471 56.373 30 57.5ZM50 57.5H55C55 53.33 58.33 50 62.5 50C66.67 50 70 53.33 70 57.5H75C74.9925 55.4471 74.4831 53.4272 73.5162 51.6163C72.5493 49.8053 71.1542 48.2583 69.4525 47.11C71.3075 45.2925 72.5 42.785 72.5 40C72.5 34.5 68 30 62.5 30C57 30 52.5 34.5 52.5 40C52.5 42.7825 53.6925 45.2925 55.5475 47.11C53.8458 48.2583 52.4507 49.8053 51.4838 51.6163C50.5169 53.4272 50.0075 55.4471 50 57.5ZM17.5 35C20.2925 35 22.5 37.2075 22.5 40C22.5 42.7925 20.2925 45 17.5 45C14.7075 45 12.5 42.7925 12.5 40C12.5 37.2075 14.7075 35 17.5 35ZM62.5 35C65.2925 35 67.5 37.2075 67.5 40C67.5 42.7925 65.2925 45 62.5 45C59.7075 45 57.5 42.7925 57.5 40C57.5 37.2075 59.7075 35 62.5 35ZM40 42.5C42.7925 42.5 45 44.7075 45 47.5C45 50.2925 42.7925 52.5 40 52.5C37.2075 52.5 35 50.2925 35 47.5C35 44.7075 37.2075 42.5 40 42.5Z" fill="#D4D4D4"/>
</svg>
