<svg width="200" height="145" viewBox="0 0 200 145" fill="none" xmlns="http://www.w3.org/2000/svg">
<rect width="200" height="145" transform="matrix(-1 0 0 -1 200 145)" fill="url(#paint0_linear_499_5116)"/>
<path fill-rule="evenodd" clip-rule="evenodd" d="M26.938 38.9399C27.219 38.6588 27.6001 38.5006 27.9976 38.5002C28.3951 38.4999 28.7765 38.6573 29.058 38.9379L36.896 46.7419C37.924 47.7639 38.59 48.4219 39.144 48.8459C39.664 49.2399 39.908 49.2859 40.068 49.2859C40.23 49.2859 40.474 49.2419 40.994 48.8459C41.55 48.4259 42.214 47.7659 43.244 46.7439L43.792 46.1979C44.732 45.2659 45.538 44.4619 46.272 43.9059C47.06 43.3079 47.932 42.8559 49.01 42.8559C50.086 42.8559 50.96 43.3079 51.748 43.9039C52.482 44.4619 53.29 45.2639 54.228 46.1979L66.5 58.3939V50.9079C66.5 50.5101 66.6581 50.1286 66.9394 49.8473C67.2207 49.566 67.6022 49.4079 68 49.4079C68.3979 49.4079 68.7794 49.566 69.0607 49.8473C69.342 50.1286 69.5 50.5101 69.5 50.9079V61.9999C69.5 62.3978 69.342 62.7793 69.0607 63.0606C68.7794 63.3419 68.3979 63.4999 68 63.4999H56.836C56.4382 63.4999 56.0567 63.3419 55.7754 63.0606C55.4941 62.7793 55.336 62.3978 55.336 61.9999C55.336 61.6021 55.4941 61.2206 55.7754 60.9393C56.0567 60.658 56.4382 60.4999 56.836 60.4999H64.364L52.184 48.3939C51.156 47.3739 50.49 46.7139 49.934 46.2939C49.414 45.8999 49.172 45.8559 49.01 45.8559C48.85 45.8559 48.606 45.8999 48.086 46.2959C47.532 46.7159 46.866 47.3739 45.838 48.3959L45.29 48.9399C44.35 49.8739 43.542 50.6799 42.808 51.2359C42.02 51.8339 41.146 52.2859 40.068 52.2859C38.99 52.2859 38.116 51.8319 37.328 51.2339C36.594 50.6759 35.788 49.8699 34.848 48.9359C34.8247 48.9132 34.8014 48.8905 34.778 48.8679L26.942 41.0599C26.6606 40.7792 26.5021 40.3983 26.5013 40.0008C26.5006 39.6033 26.6577 39.2217 26.938 38.9399Z" fill="white"/>
<defs>
<linearGradient id="paint0_linear_499_5116" x1="200" y1="145" x2="-4.7687" y2="-30.8954" gradientUnits="userSpaceOnUse">
<stop stop-color="#96F0E5"/>
<stop offset="0.570545" stop-color="#96F0E5" stop-opacity="0"/>
</linearGradient>
</defs>
</svg>
