<svg width="200" height="145" viewBox="0 0 200 145" fill="none" xmlns="http://www.w3.org/2000/svg">
<rect width="200" height="145" transform="matrix(1 0 0 -1 0 145)" fill="url(#paint0_linear_499_5119)"/>
<path fill-rule="evenodd" clip-rule="evenodd" d="M130.938 61.0601C131.219 61.3412 131.6 61.4994 131.998 61.4998C132.395 61.5001 132.777 61.3427 133.058 61.0621L140.896 53.2581C141.924 52.2361 142.59 51.5781 143.144 51.1541C143.664 50.7601 143.908 50.7141 144.068 50.7141C144.23 50.7141 144.474 50.7581 144.994 51.1541C145.55 51.5741 146.214 52.2341 147.244 53.2561L147.792 53.8021C148.732 54.7341 149.538 55.5381 150.272 56.0941C151.06 56.6921 151.932 57.1441 153.01 57.1441C154.086 57.1441 154.96 56.6921 155.748 56.0961C156.482 55.5381 157.29 54.7361 158.228 53.8021L170.5 41.6061V49.0921C170.5 49.4899 170.658 49.8714 170.939 50.1527C171.221 50.434 171.602 50.5921 172 50.5921C172.398 50.5921 172.779 50.434 173.061 50.1527C173.342 49.8714 173.5 49.4899 173.5 49.0921V38.0001C173.5 37.6022 173.342 37.2207 173.061 36.9394C172.779 36.6581 172.398 36.5001 172 36.5001H160.836C160.438 36.5001 160.057 36.6581 159.775 36.9394C159.494 37.2207 159.336 37.6022 159.336 38.0001C159.336 38.3979 159.494 38.7794 159.775 39.0607C160.057 39.342 160.438 39.5001 160.836 39.5001H168.364L156.184 51.6061C155.156 52.6261 154.49 53.2861 153.934 53.7061C153.414 54.1001 153.172 54.1441 153.01 54.1441C152.85 54.1441 152.606 54.1001 152.086 53.7041C151.532 53.2841 150.866 52.6261 149.838 51.6041L149.29 51.0601C148.35 50.1261 147.542 49.3201 146.808 48.7641C146.02 48.1661 145.146 47.7141 144.068 47.7141C142.99 47.7141 142.116 48.1681 141.328 48.7661C140.594 49.3241 139.788 50.1301 138.848 51.0641C138.825 51.0868 138.801 51.1095 138.778 51.1321L130.942 58.9401C130.661 59.2208 130.502 59.6017 130.501 59.9992C130.501 60.3967 130.658 60.7783 130.938 61.0601Z" fill="white"/>
<defs>
<linearGradient id="paint0_linear_499_5119" x1="200" y1="145" x2="-4.7687" y2="-30.8954" gradientUnits="userSpaceOnUse">
<stop stop-color="#7BD7FF"/>
<stop offset="0.570545" stop-color="#7BD7FF" stop-opacity="0"/>
</linearGradient>
</defs>
</svg>
