<svg width="80" height="61" viewBox="0 0 80 61" fill="none" xmlns="http://www.w3.org/2000/svg">
<path d="M34.1667 13.3333C34.1669 12.8295 34.0149 12.3373 33.7306 11.9213C33.4462 11.5054 33.0428 11.185 32.5732 11.0023C32.1037 10.8196 31.5898 10.783 31.0991 10.8974C30.6084 11.0118 30.1637 11.2718 29.8234 11.6433L11.49 31.6433C11.1619 32.001 10.945 32.4465 10.8658 32.9253C10.7866 33.4042 10.8485 33.8958 11.0439 34.3401C11.2394 34.7843 11.56 35.1621 11.9665 35.4273C12.373 35.6925 12.848 35.8335 13.3334 35.8333H66.6667C67.3297 35.8333 67.9656 35.5699 68.4345 35.1011C68.9033 34.6323 69.1667 33.9964 69.1667 33.3333C69.1667 32.6703 68.9033 32.0344 68.4345 31.5656C67.9656 31.0967 67.3297 30.8333 66.6667 30.8333H34.1667V13.3333ZM45.8334 66.6667V49.1667H13.3334C12.6703 49.1667 12.0344 48.9033 11.5656 48.4344C11.0967 47.9656 10.8334 47.3297 10.8334 46.6667C10.8334 46.0036 11.0967 45.3677 11.5656 44.8989C12.0344 44.4301 12.6703 44.1667 13.3334 44.1667H66.6667C67.1521 44.1665 67.627 44.3075 68.0336 44.5727C68.4401 44.8379 68.7607 45.2157 68.9561 45.6599C69.1516 46.1042 69.2135 46.5958 69.1343 47.0747C69.055 47.5535 68.8381 47.999 68.51 48.3567L50.1767 68.3567C49.8363 68.7282 49.3916 68.9882 48.9009 69.1026C48.4102 69.217 47.8964 69.1804 47.4268 68.9977C46.9572 68.815 46.5538 68.4946 46.2695 68.0787C45.9851 67.6627 45.8331 67.1705 45.8334 66.6667Z" fill="#D4D4D4"/>
</svg>
