<svg width="24" height="24" viewBox="0 0 24 24" fill="none" xmlns="http://www.w3.org/2000/svg">
<path d="M12 9.5999C12.9548 9.5999 13.8704 9.22062 14.5456 8.54549C15.2207 7.87036 15.6 6.95468 15.6 5.9999C15.6 5.04512 15.2207 4.12945 14.5456 3.45432C13.8704 2.77919 12.9548 2.3999 12 2.3999C11.0452 2.3999 10.1295 2.77919 9.4544 3.45432C8.77927 4.12945 8.39999 5.04512 8.39999 5.9999C8.39999 6.95468 8.77927 7.87036 9.4544 8.54549C10.1295 9.22062 11.0452 9.5999 12 9.5999ZM4.15799 17.3927C4.04716 17.6901 4.03517 18.0154 4.1238 18.3202C4.21242 18.625 4.39695 18.8931 4.64999 19.0847C6.75144 20.7184 9.33822 21.6036 12 21.5999C14.772 21.5999 17.3256 20.6591 19.3572 19.0799C19.8732 18.6803 20.082 17.9963 19.8468 17.3879C19.2375 15.8015 18.1615 14.4372 16.7608 13.475C15.3601 12.5127 13.7005 11.9978 12.0011 11.9982C10.3018 11.9986 8.64248 12.5143 7.24222 13.4772C5.84196 14.44 4.76658 15.8049 4.15799 17.3915" fill="#005AE0"/>
</svg>
