<svg width="16" height="15" viewBox="0 0 16 15" fill="none" xmlns="http://www.w3.org/2000/svg">
<path d="M7.29948 7.96767L6.33281 7.01767C6.21059 6.89545 6.05792 6.83434 5.87481 6.83434C5.6917 6.83434 5.53326 6.901 5.39948 7.03434C5.27726 7.15656 5.21615 7.31211 5.21615 7.501C5.21615 7.68989 5.27726 7.84545 5.39948 7.96767L6.83281 9.401C6.96615 9.53434 7.1217 9.601 7.29948 9.601C7.47726 9.601 7.63281 9.53434 7.76615 9.401L10.5995 6.56767C10.7328 6.43434 10.7966 6.27878 10.7908 6.101C10.785 5.92322 10.7213 5.76767 10.5995 5.63434C10.4661 5.501 10.3079 5.43167 10.1248 5.42634C9.9417 5.421 9.78326 5.48478 9.64948 5.61767L7.29948 7.96767ZM5.43281 14.001L4.46615 12.3677L2.63281 11.9677C2.46615 11.9343 2.33281 11.8483 2.23281 11.7097C2.13281 11.571 2.09392 11.4181 2.11615 11.251L2.29948 9.36767L1.04948 7.93434C0.938368 7.81211 0.882812 7.66767 0.882812 7.501C0.882812 7.33434 0.938368 7.18989 1.04948 7.06767L2.29948 5.63434L2.11615 3.751C2.09392 3.58434 2.13281 3.43145 2.23281 3.29234C2.33281 3.15322 2.46615 3.06723 2.63281 3.03434L4.46615 2.63434L5.43281 1.001C5.5217 0.856558 5.64392 0.759225 5.79948 0.709003C5.95503 0.658781 6.11059 0.667225 6.26615 0.734336L7.99948 1.46767L9.73281 0.734336C9.88837 0.667669 10.0439 0.659225 10.1995 0.709003C10.355 0.758781 10.4773 0.856114 10.5661 1.001L11.5328 2.63434L13.3661 3.03434C13.5328 3.06767 13.6661 3.15389 13.7661 3.293C13.8661 3.43211 13.905 3.58478 13.8828 3.751L13.6995 5.63434L14.9495 7.06767C15.0606 7.18989 15.1161 7.33434 15.1161 7.501C15.1161 7.66767 15.0606 7.81211 14.9495 7.93434L13.6995 9.36767L13.8828 11.251C13.905 11.4177 13.8661 11.5706 13.7661 11.7097C13.6661 11.8488 13.5328 11.9348 13.3661 11.9677L11.5328 12.3677L10.5661 14.001C10.4773 14.1454 10.355 14.2428 10.1995 14.293C10.0439 14.3432 9.88837 14.3348 9.73281 14.2677L7.99948 13.5343L6.26615 14.2677C6.11059 14.3343 5.95503 14.3428 5.79948 14.293C5.64392 14.2432 5.5217 14.1459 5.43281 14.001Z" fill="#00E09D"/>
</svg>
