<svg width="23" height="24" viewBox="0 0 23 24" fill="none" xmlns="http://www.w3.org/2000/svg">
<g clip-path="url(#clip0_1019_11024)">
<path d="M10.0815 10.6894L8.74835 10.6895L8.74788 14.6903L12.7482 14.6903L12.7477 13.3567L11.0248 13.3562L14.5777 9.80321L13.6349 8.8604L10.082 12.4134L10.0815 10.6894Z" fill="#E04300"/>
<path fill-rule="evenodd" clip-rule="evenodd" d="M4.10628 11.9992C4.10628 16.0495 7.38915 19.3324 11.4395 19.3324C15.4898 19.3324 18.7726 16.0495 18.7726 11.9992C18.7726 7.94891 15.4898 4.66605 11.4395 4.66605C7.38915 4.66605 4.10628 7.94891 4.10628 11.9992ZM5.43942 11.9992C5.43942 13.5905 6.07156 15.1167 7.19679 16.2419C8.32201 17.3671 9.84814 17.9993 11.4395 17.9993C13.0308 17.9993 14.5569 17.3671 15.6821 16.2419C16.8073 15.1167 17.4395 13.5905 17.4395 11.9992C17.4395 10.4079 16.8073 8.88178 15.6821 7.75655C14.5569 6.63133 13.0308 5.99918 11.4395 5.99918C9.84814 5.99918 8.32201 6.63133 7.19679 7.75655C6.07156 8.88178 5.43942 10.4079 5.43942 11.9992Z" fill="#E04300"/>
</g>
<defs>
<clipPath id="clip0_1019_11024">
<rect width="16" height="16" fill="white" transform="translate(11.4395 23.3135) rotate(-135)"/>
</clipPath>
</defs>
</svg>
