<svg width="13" height="14" viewBox="0 0 13 14" fill="none" xmlns="http://www.w3.org/2000/svg">
<path d="M0.536 14V0.559999H6.8336C7.768 0.559999 8.6 0.745599 9.3296 1.1168C10.0592 1.488 10.6288 1.9936 11.0384 2.6336C11.448 3.2736 11.6528 4.0096 11.6528 4.8416C11.6528 5.776 11.448 6.5952 11.0384 7.2992C10.6288 8.0032 10.0592 8.5536 9.3296 8.9504C8.6 9.3344 7.768 9.5264 6.8336 9.5264H4.4144V14H0.536ZM7.5824 14L4.1648 7.9328L8.408 7.4528L12.2096 14H7.5824ZM4.4144 6.6464H6.1808C6.5008 6.6464 6.7632 6.5888 6.968 6.4736C7.1856 6.3456 7.3456 6.1728 7.448 5.9552C7.5632 5.7376 7.6208 5.4752 7.6208 5.168C7.6208 4.8864 7.5632 4.6496 7.448 4.4576C7.3456 4.2528 7.1792 4.0992 6.9488 3.9968C6.7312 3.8816 6.4496 3.824 6.104 3.824H4.4144V6.6464Z" fill="#005AE0"/>
</svg>
